<?xml version="1.0" standalone="no"?><!DOCTYPE svg PUBLIC "-//W3C//DTD SVG 1.1//EN" "http://www.w3.org/Graphics/SVG/1.1/DTD/svg11.dtd"><svg t="1638965890855" class="icon" viewBox="0 0 1024 1024" version="1.1" xmlns="http://www.w3.org/2000/svg" p-id="10735" xmlns:xlink="http://www.w3.org/1999/xlink" width="128" height="128"><defs><style type="text/css"></style></defs><path d="M114.670933 270.0288a75.6736 75.6736 0 0 0-75.6736 75.6736v520.2944a75.707733 75.707733 0 0 0 75.6736 75.707733h253.934934c45.704533 0 90.146133 15.035733 126.429866 42.786134 4.898133 3.754667 10.8032 5.956267 16.964267 5.956266s12.066133-2.2016 16.9472-5.956266a208.128 208.128 0 0 1 126.429867-42.786134h253.952a75.690667 75.690667 0 0 0 75.6736-75.707733V345.7024a75.6736 75.6736 0 0 0-75.6736-75.6736h-253.952a208.213333 208.213333 0 0 0-133.870934 48.759467l-9.506133 7.9872-9.5232-7.9872a208.145067 208.145067 0 0 0-133.853867-48.759467H114.670933z" fill="#08979C" p-id="10736"></path><path d="M114.670933 203.793067a75.690667 75.690667 0 0 0-75.6736 75.690666v520.311467a75.6736 75.6736 0 0 0 75.6736 75.656533h253.934934c45.704533 0 90.146133 15.086933 126.429866 42.820267 4.898133 3.754667 10.8032 5.973333 16.964267 5.973333s12.066133-2.218667 16.9472-5.973333a208.264533 208.264533 0 0 1 126.429867-42.820267h253.952a75.6736 75.6736 0 0 0 75.6736-75.656533V279.483733a75.690667 75.690667 0 0 0-75.6736-75.690666h-253.952a208.213333 208.213333 0 0 0-133.870934 48.759466l-9.506133 8.021334-9.5232-8.004267a208.145067 208.145067 0 0 0-133.853867-48.759467H114.670933z" fill="#36CFC9" p-id="10737"></path><path d="M653.892267 544.3584c0-15.6672 12.6976-28.3648 28.381866-28.3648h189.201067a28.381867 28.381867 0 0 1 0 56.763733H682.2912a28.398933 28.398933 0 0 1-28.398933-28.398933z m0 170.308267c0-15.701333 12.6976-28.398933 28.381866-28.398934h189.201067a28.381867 28.381867 0 0 1 0 56.763734H682.2912a28.381867 28.381867 0 0 1-28.398933-28.3648zM124.142933 345.7024c0-15.6672 12.714667-28.381867 28.381867-28.381867h189.201067a28.3648 28.3648 0 0 1 0 56.763734H152.5248a28.398933 28.398933 0 0 1-28.381867-28.381867z m0 170.274133c0-15.6672 12.714667-28.381867 28.381867-28.381866h189.201067a28.3648 28.3648 0 0 1 0 56.746666H152.5248a28.3648 28.3648 0 0 1-28.381867-28.3648z m0 170.2912c0-15.684267 12.714667-28.381867 28.381867-28.381866h189.201067a28.381867 28.381867 0 1 1 0 56.7808H152.5248a28.398933 28.398933 0 0 1-28.381867-28.398934zM512 436.309333v102.2464h102.229333l301.243734-301.243733-102.229334-102.212267z" fill="#B5F5EC" p-id="10738"></path><path d="M994.525867 158.242133c10.922667-10.9056 10.922667-27.272533 0-38.161066L930.474667 56.029867c-10.9056-10.9056-27.272533-10.9056-38.161067 0l-50.432 50.432 102.229333 102.229333 50.414934-50.449067z" fill="#36CFC9" p-id="10739"></path></svg>