<?xml version="1.0" standalone="no"?><!DOCTYPE svg PUBLIC "-//W3C//DTD SVG 1.1//EN" "http://www.w3.org/Graphics/SVG/1.1/DTD/svg11.dtd"><svg t="1638965724424" class="icon" viewBox="0 0 1024 1024" version="1.1" xmlns="http://www.w3.org/2000/svg" p-id="1686" xmlns:xlink="http://www.w3.org/1999/xlink" width="128" height="128"><defs><style type="text/css"></style></defs><path d="M878.08 807.936l-192-92.16 8.192-190.464 194.56 82.432z" fill="#FF8F00" p-id="1687"></path><path d="M707.072 841.216l-186.88-96.256 165.888-29.184 192 92.16z" fill="#C16500" p-id="1688"></path><path d="M632.832 935.936l-183.296-101.888L459.264 481.28l188.416 82.944z" fill="#C16500" p-id="1689"></path><path d="M647.68 564.224L459.264 481.28l303.104-41.984 197.632 76.8z" fill="#FF8F00" p-id="1690"></path><path d="M647.68 564.224l312.832-48.128-19.968 357.376-306.688 62.464 13.824-371.712z m230.4 243.712l10.752-200.192-173.056 28.672-8.704 204.8 171.008-33.28" fill="#FFC107" p-id="1691"></path><path d="M650.752 479.232L461.824 400.896l10.24-371.2L665.6 87.04z" fill="#1E88E5" p-id="1692"></path><path d="M665.6 87.04L472.064 29.696 781.824 5.12l204.288 53.248z" fill="#90CAF9" p-id="1693"></path><path d="M986.112 58.368l-21.504 376.32-313.856 44.544L665.6 87.04z" fill="#2196F3" p-id="1694"></path><path d="M220.16 1020.416l-168.96-112.64 1.536-370.176 173.056 91.648z" fill="#64B5F6" p-id="1695"></path><path d="M225.792 629.248L52.736 537.6l335.872-46.592 185.344 84.48z" fill="#1976D2" p-id="1696"></path><path d="M573.952 575.488l-12.8 375.296L220.16 1020.416l5.632-391.168z" fill="#2196F3" p-id="1697"></path><path d="M504.832 413.184L319.488 336.896l4.096-210.432 187.904 64.512z" fill="#FF8F00" p-id="1698"></path><path d="M309.248 438.784L131.072 358.912l188.416-22.016 185.344 76.288z" fill="#C16500" p-id="1699"></path><path d="M226.816 539.648L53.248 453.12l1.536-390.144 178.176 62.976z" fill="#FFD366" p-id="1700"></path><path d="M232.96 125.952L54.784 62.976 399.36 35.328l191.488 58.368z" fill="#FFE5AB" p-id="1701"></path><path d="M232.96 125.952l357.888-31.744-13.824 395.776-350.208 49.664 6.144-413.696z m271.872 287.232l6.656-222.208-197.632 19.968-4.096 227.84 195.072-25.6" fill="#FFC107" p-id="1702"></path></svg>