<?xml version="1.0" standalone="no"?><!DOCTYPE svg PUBLIC "-//W3C//DTD SVG 1.1//EN" "http://www.w3.org/Graphics/SVG/1.1/DTD/svg11.dtd"><svg t="1638965771214" class="icon" viewBox="0 0 1024 1024" version="1.1" xmlns="http://www.w3.org/2000/svg" p-id="6930" xmlns:xlink="http://www.w3.org/1999/xlink" width="128" height="128"><defs><style type="text/css"></style></defs><path d="M0 0h1024v1024H0V0z" fill="#202425" opacity=".01" p-id="6931"></path><path d="M238.933333 68.266667a34.133333 34.133333 0 0 0-34.133333 34.133333v68.266667a34.133333 34.133333 0 0 0 34.133333 34.133333h546.133334a34.133333 34.133333 0 0 0 34.133333-34.133333V102.4a34.133333 34.133333 0 0 0-34.133333-34.133333H238.933333zM136.533333 238.933333a34.133333 34.133333 0 0 0-34.133333 34.133334v68.266666a34.133333 34.133333 0 0 0 34.133333 34.133334h750.933334a34.133333 34.133333 0 0 0 34.133333-34.133334V273.066667a34.133333 34.133333 0 0 0-34.133333-34.133334H136.533333z" fill="#FFAA44" p-id="6932"></path><path d="M512 546.133333a136.533333 136.533333 0 0 0 136.533333-136.533333h307.2a34.133333 34.133333 0 0 1 34.133334 34.133333v477.866667a34.133333 34.133333 0 0 1-34.133334 34.133333H68.266667a34.133333 34.133333 0 0 1-34.133334-34.133333V443.733333a34.133333 34.133333 0 0 1 34.133334-34.133333h307.2a136.533333 136.533333 0 0 0 136.533333 136.533333z" fill="#11AA66" p-id="6933"></path><path d="M341.333333 750.933333a34.133333 34.133333 0 0 1 34.133334-34.133333h273.066666a34.133333 34.133333 0 1 1 0 68.266667h-273.066666a34.133333 34.133333 0 0 1-34.133334-34.133334z" fill="#FFFFFF" p-id="6934"></path></svg>