<?xml version="1.0" standalone="no"?><!DOCTYPE svg PUBLIC "-//W3C//DTD SVG 1.1//EN" "http://www.w3.org/Graphics/SVG/1.1/DTD/svg11.dtd"><svg t="1676278483175" class="icon" viewBox="0 0 1024 1024" version="1.1" xmlns="http://www.w3.org/2000/svg" p-id="3268" xmlns:xlink="http://www.w3.org/1999/xlink" width="200" height="200"><path d="M106.666667 640v68.266667c0 36.266667 21.333333 68.266667 55.466666 81.066666l320 117.333334c19.2 6.4 40.533333 6.4 59.733334 0l320-117.333334c34.133333-12.8 55.466667-44.8 55.466666-81.066666V640l-405.333333 149.333333-405.333333-149.333333z" p-id="3269"></path><path d="M106.666667 448v128l405.333333 149.333333 405.333333-149.333333v-128l-405.333333 149.333333z" p-id="3270"></path><path d="M482.133333 117.333333L162.133333 234.666667C128 247.466667 106.666667 279.466667 106.666667 315.733333V384l405.333333 149.333333 405.333333-149.333333v-68.266667c0-36.266667-21.333333-68.266667-55.466666-81.066666l-320-117.333334c-19.2-6.4-40.533333-6.4-59.733334 0zM448 345.6c-34.133333-12.8-34.133333-34.133333 0-46.933333 34.133333-12.8 91.733333-12.8 125.866667 0 34.133333 12.8 34.133333 34.133333 0 46.933333-34.133333 12.8-89.6 12.8-125.866667 0z m356.266667-93.866667l-128 46.933334-38.4-61.866667 166.4 14.933333zM512 153.6L614.4 192 512 228.266667 411.733333 192 512 153.6z m-241.066667 78.933333l61.866667 8.533334 51.2-12.8v23.466666l53.333333 14.933334-59.733333 6.4-17.066667 23.466666-40.533333-21.333333h-64l36.266667-19.2-21.333334-23.466667z" p-id="3271"></path></svg>