<?xml version="1.0" standalone="no"?><!DOCTYPE svg PUBLIC "-//W3C//DTD SVG 1.1//EN" "http://www.w3.org/Graphics/SVG/1.1/DTD/svg11.dtd"><svg t="1676278759069" class="icon" viewBox="0 0 1024 1024" version="1.1" xmlns="http://www.w3.org/2000/svg" p-id="7113" xmlns:xlink="http://www.w3.org/1999/xlink" width="200" height="200"><path d="M764.74 955.37c-5.12 0.38-9.22 0.51-13.18 0.51-161.2 0.12-322.65 0.12-483.84 0.12-13.7 0-13.83-0.13-13.7-13.83v-34.05c0-9.6 3.97-13.57 13.83-13.57 33.67 0 67.47 0.12 101.15 0 14.08-0.13 15.37-1.67 15.37-15.23v-34.06c-0.13-12.68-3.2-15.75-15.75-15.75H60.56c-26.76 0-45.84-11.91-55.44-37.13-2.69-6.91-4.74-14.47-4.74-21.64-0.26-214.97 0-429.93-0.38-644.77 0-24.96 13.44-40.84 32.13-53.13 6.4-4.23 15.62-5.12 23.56-6.15 7.29-1.03 15.1-0.38 22.79-0.38H955.12c21 0 39.56 6.01 52.49 22.66 8.58 11.01 15.75 22.02 15.62 38.53-0.77 213.68-0.51 427.5-0.51 641.18 0 10.5 0 19.84-8.96 28.93-6.28 6.53-9.99 16.65-18.82 21.25-8.2 4.35-17.03 9.86-25.73 10.11-53.65 1.03-107.42 0.51-161.07 0.51-52.37 0.13-104.86 0-157.23 0-12.93 0-13.32 0.38-13.44 13.57-0.13 13.44 0.51 26.89-0.26 40.45-0.64 9.86 4.74 11.27 12.29 11.27 33.29-0.13 66.32-0.13 99.36-0.13 14.47 0 15.87 1.54 15.75 15.62 0.13 14.63 0.13 29.23 0.13 45.11zM63.51 128.28c-0.38 6.53-1.03 11.65-1.03 16.9-0.12 45.71 0 91.29 0 137.12v341.33c0 17.03 0 16.9 17.03 16.9h863.58c13.7 0 16.64-2.69 16.64-16.52V142.74c0-13.7-1.03-14.6-14.72-14.6H63.51v0.14zM436.46 370c-13.32 1.28-25.22-1.66-36.1-9.86-1.66-1.15-6.4 0.13-8.58 1.79-24.32 19.2-48.27 38.79-72.59 58-15.37 12.16-31.11 23.82-46.48 35.85-6.01 4.86-11.9 9.98-4.73 18.43 1.02 1.15 1.28 3.71 0.77 5.25-5.9 19.46-11.27 38.79-32.26 48.52-26.76 12.3-51.86 4.99-70.04-17.02-10.75-13.19-13.18-28.68-10.11-44.17 3.59-17.67 13.83-32.26 31.24-39.05 9.35-3.59 19.97-3.97 29.96-5.76 2.04-0.38 4.73-0.26 6.27 0.77 14.72 9.35 25.74 4.1 37.64-6.79 13.83-12.8 29.71-23.56 44.69-35.21 22.15-17.15 44.42-34.18 66.06-51.85 3.59-2.81 6.14-8.83 6.02-13.44-0.51-20.74 9.35-37.13 25.22-47.24 14.98-9.6 33.29-12.04 51.34-3.97 9.86 4.23 18.05 9.73 24.07 18.56 11.27 16.77 14.47 33.93 6.02 53.26-1.66 3.58 2.43 10.88 5.76 14.85 13.7 16.9 29.19 32.13 41.23 49.8 6.15 9.34 12.55 7.94 20.49 8.45 10.37 0.64 21.25-3.07 30.59 5.12 1.03 1.16 6.66-0.77 8.97-2.69 16-14.72 31.88-29.58 47.76-44.55 26.89-25.09 53.78-50.32 80.91-75.41 9.22-8.45 18.95-16.26 27.66-25.22 3.07-3.2 5.12-8.32 5.76-12.93 0.77-7.17-1.28-14.72-0.39-22.02 2.18-16.91 8.32-32.26 24.58-40.46 8.84-4.48 18.44-10.12 27.79-9.98 16 0.26 31.88 5.38 43.65 17.54 16.26 16.91 15.62 38.41 11.4 58.52-3.2 14.85-15.62 25.99-30.86 31.11-8.32 2.82-17.67 3.71-26.5 5.13-1.66 0.38-4.09 0.38-5.38-0.51-15.88-11.02-24.07 1.41-33.8 10.5-15.49 14.85-31.5 29.06-47.38 43.79-22.91 21.38-45.83 43.02-68.75 64.4-11.27 10.63-22.79 21.12-33.55 32.26-2.69 2.69-4.74 8.06-4.23 11.78 2.56 23.81-6.53 43.4-26.38 55.05-12.93 7.56-28.42 11.78-45.19 4.48-11.52-5.12-22.41-9.73-29.06-20.61-10.12-16-14.72-32.78-6.02-51.34 2.82-5.76 3.33-11.9-2.3-18.3-14.6-16.65-27.79-34.45-41.61-51.47-1.79-2.18-5.25-3.84-8.2-3.97-4.73-0.41-10.11 0.49-15.36 0.61zM229.43 477.16c-0.12-10.88-6.27-16.26-18.18-16.26-10.88 0.12-17.41 6.66-17.15 17.54 0.12 10.75 7.17 17.79 17.54 17.79 9.09-0.12 17.92-9.46 17.79-19.07z m580.12-256.95c-11.52-0.13-17.54 5.5-17.67 16.9-0.13 10.88 6.66 18.44 16.64 18.44 8.58 0 18.82-9.47 18.82-17.8 0.13-9.61-7.93-17.42-17.79-17.54zM539.4 462.19c-0.26 12.55 4.1 17.67 15.37 17.79 11.27 0.13 19.46-6.91 19.59-16.9 0.13-6.01-9.35-18.82-18.05-18.44-10.63 0.26-16.66 5.89-16.91 17.55z m-86.8-146.21c-3.97-13.7-11.27-21-26.25-16.26-8.19 2.56-8.45 10.12-10.5 15.75-1.79 5.5 7.94 16 16.26 17.28 12.8 1.92 16.64-8.33 20.49-16.77z m0 0" fill="#333333" p-id="7114"></path></svg>